<svg width="267" height="267" viewBox="0 0 267 267" fill="none" xmlns="http://www.w3.org/2000/svg">
<path d="M117.955 4.71976C127.611 -0.696433 139.389 -0.696435 149.045 4.71976L158.47 10.0072C163.102 12.6054 168.311 14.0011 173.621 14.0669L184.428 14.2008C195.498 14.3379 205.698 20.2271 211.352 29.7453L216.871 39.0373C219.583 43.6032 223.397 47.4165 227.963 50.1286L237.255 55.6479C246.773 61.3016 252.662 71.502 252.799 82.5718L252.933 93.3786C252.999 98.6889 254.395 103.898 256.993 108.53L262.28 117.955C267.696 127.611 267.696 139.389 262.28 149.045L256.993 158.47C254.395 163.102 252.999 168.311 252.933 173.621L252.799 184.428C252.662 195.498 246.773 205.698 237.255 211.352L227.963 216.871C223.397 219.583 219.583 223.397 216.871 227.963L211.352 237.255C205.698 246.773 195.498 252.662 184.428 252.799L173.621 252.933C168.311 252.999 163.102 254.395 158.47 256.993L149.045 262.28C139.389 267.696 127.611 267.696 117.955 262.28L108.53 256.993C103.898 254.395 98.6888 252.999 93.3786 252.933L82.5718 252.799C71.502 252.662 61.3016 246.773 55.6479 237.255L50.1286 227.963C47.4165 223.397 43.6032 219.583 39.0373 216.871L29.7453 211.352C20.2271 205.698 14.3379 195.498 14.2008 184.428L14.0669 173.621C14.0011 168.311 12.6054 163.102 10.0072 158.47L4.71976 149.045C-0.696433 139.389 -0.696435 127.611 4.71976 117.955L10.0072 108.53C12.6054 103.898 14.0011 98.6888 14.0669 93.3786L14.2008 82.5718C14.3379 71.502 20.2271 61.3016 29.7453 55.6479L39.0373 50.1286C43.6032 47.4165 47.4165 43.6032 50.1286 39.0373L55.6479 29.7453C61.3016 20.2271 71.502 14.3379 82.5718 14.2008L93.3786 14.0669C98.6889 14.0011 103.898 12.6054 108.53 10.0072L117.955 4.71976Z" fill="#E1F6E7"/>
</svg>
